# xmcd
#
# Track frame offsets: 
#        150
#        20998
#        23357
#        46990
#        65815
#        105845
#        132182
#        146311
#        147614
#        169960
#        197586
#        201205
#        221249
#        260482
#        277857
#
# Disc length: 4031 seconds
#
# Revision: 0
# Processed by: cddbd v1.5.2PL0 Copyright (c) Steve Scherf et al.
# Submitted via: ExactAudioCopy v0.99pb5
#
DISCID=e30fbd0f
DTITLE=Scissormen - Big Shoes - Walking And Talking The Blues
DYEAR=2012
DGENRE=Blues
TTITLE0=Big Shoes
TTITLE1=Mattie Sweet Mattie Intro
TTITLE2=Mattie Sweet Mattie
TTITLE3=Jumper On The Line
TTITLE4=Tupelo
TTITLE5=The Devil Is Laughing
TTITLE6=Move Baby Move
TTITLE7=Jessie Mae Intro
TTITLE8=Jessie Mae
TTITLE9=Delta Train
TTITLE10=R. L. Burnside Intro
TTITLE11=R. L. Burnside
TTITLE12=Whiskey And Maryjane
TTITLE13=When The Devil Calls
TTITLE14=Big Shoes (Slight Return)
EXTD=
EXTT0=
EXTT1=
EXTT2=
EXTT3=
EXTT4=
EXTT5=
EXTT6=
EXTT7=
EXTT8=
EXTT9=
EXTT10=
EXTT11=
EXTT12=
EXTT13=
EXTT14=
PLAYORDER=
